<svg height="511pt" viewBox="-72 0 511 511.99959" width="511pt" xmlns="http://www.w3.org/2000/svg"><path d="m366.726562 467.820312-23.179687-97.042968c-.035156-.144532-.078125-.292969-.121094-.4375-8.714843-28.714844-36.859375-59.621094-78.054687-59.621094h-19.328125c-.015625 0-.035157 0-.054688 0h-12.136719v-34.058594c6.5-3.964844 12.535157-8.777344 18.011719-14.421875 15.089844-15.535156 26.082031-37.339843 31.960938-63.3125 10.078125-3.203125 18.214843-16.484375 20.011719-34.042969 1.59375-15.589843-2.347657-29.011718-9.867188-35.398437.695312-7.339844.90625-14.957031.386719-22.636719-.277344-4.132812-3.851563-7.242187-7.988281-6.980468-4.132813.28125-7.253907 3.855468-6.976563 7.988281 1.125 16.652343-1.664063 33.277343-5.238281 46.894531-1.152344-6.246094-2.675782-12.519531-5.183594-18.371094-3.539062-8.273437-11.671875-14.367187-24.855469-18.628906-9.101562-2.941406-20.738281-5.085938-36.632812-6.746094-4.125-.425781-7.804688 2.5625-8.234375 6.679688-.429688 4.121094 2.558594 7.808594 6.679687 8.238281 10.9375 1.144531 44.226563 4.617187 49.253907 16.355469 5.898437 14.746094 6.667968 31.3125 7.089843 47.011718.101563 3.808594 2.769531 7.09375 6.652344 7.539063-11.613281 49.84375-42.261719 78.265625-84.8125 78.265625-44.292969 0-75.691406-30.800781-86.144531-84.5-.785156-4.054688-4.742188-6.691406-8.800782-5.925781-1.902343.230469-8.402343-7.0625-9.859374-21.3125-.601563-5.875-.394532-12.128907 1.746093-17.703125 1.742188 2.863281 3.628907 5.65625 5.621094 8.355468 1.660156 2.246094 3.300781 5.050782 5.566406 6.734376 3.710938 2.765624 9.21875 1.414062 11.226563-2.753907 4.863281-10.085937 19.429687-38.417969 28.308594-48.292969 2.699218-3.003906 4.671874-6.027343 6.097656-8.960937 7.167968 8.402344 17.636718 17.28125 31.738281 21.164063 3.988281 1.09375 8.121094-1.25 9.21875-5.242188 1.101563-3.992188-1.246094-8.121094-5.238281-9.222656-22.738282-6.257813-34.007813-31.1875-34.113282-31.421875-1.636718-3.753907-5.984374-5.496094-9.765624-3.917969-3.777344 1.582031-5.589844 5.898438-4.070313 9.703125.035156.085937 3.167969 8.757813-5.023437 17.867187-8.09375 9.007813-18.726563 28.417969-25.113282 40.769532-9.308594-14.296875-14.082031-29.601563-13.890625-44.8125.195313-15.234375 5.492188-30.171875 14.535157-40.980469 9.667968-11.554687 21.8125-16.144531 30.226562-11.433594 2.140625 1.199219 4.730469 1.265625 6.9375.195313 2.207031-1.066406 3.753906-3.160156 4.140625-5.582032.628906-3.96875 3.980469-15.949218 10.855469-18.8125 18.21875-7.589843 64.847656-9.105468 110.898437 39.488282 4.828125 5.097656 8.855469 10.871094 11.96875 17.164062 1.835938 3.710938 6.335938 5.230469 10.046875 3.394532 3.710938-1.835938 5.234375-6.332032 3.398438-10.046876-3.777344-7.636718-8.667969-14.644531-14.527344-20.828124-21.84375-23.046876-47.042969-38.582032-72.882812-44.925782-28.453126-6.980468-47.710938-.992187-54.671876 1.90625-6.9375 2.890625-12.601562 9.207032-16.382812 18.265625-.492188 1.179688-.921875 2.332031-1.296875 3.425781-13.316406-2.625-28.285156 3.902344-40.214844 18.164063-11.222656 13.414063-17.792969 31.789063-18.027343 50.417969-.152344 11.777344 2.160156 23.527344 6.75 34.898437-6.886719 6.691407-10.507813 19.664063-8.984376 34.550781 1.796876 17.558594 9.929688 30.839844 20.007813 34.042969 5.878906 25.972657 16.871094 47.777344 31.960937 63.3125 5.53125 5.695313 11.621094 10.550781 18.191407 14.535157v33.945312h-12.328125c-.003906 0-.007813 0-.011719 0h-19.359375c-19.917969 0-37.171875 6.246094-51.292969 18.5625-11.441406 9.980469-20.652343 24.054688-26.640625 40.695312-.097656.261719-.175781.527344-.238281.796876l-23.183594 97.042968c-2.554687 10.699219-.105469 21.796875 6.722657 30.445313 6.890624 8.730469 17.246093 13.738281 28.410156 13.738281h15.566406c4.144531 0 7.5-3.355469 7.5-7.5s-3.355469-7.5-7.5-7.5h-15.566406c-6.542969 0-12.609375-2.925781-16.636719-8.03125-3.964844-5.023438-5.386719-11.464844-3.90625-17.667969l23.082031-96.628906c15.492188-42.585937 46.527344-48.953125 63.683594-48.953125h15.109375l26.308594 40.921875c2.863281 4.457031 7.53125 7.328125 12.800781 7.878906.609375.0625 1.21875.09375 1.824219.09375 4.621093 0 9.035156-1.832031 12.328125-5.164062l12.894531-13.0625 12.894531 13.0625c3.722656 3.769531 8.875 5.617187 14.148438 5.070312 5.273437-.550781 9.9375-3.421875 12.804687-7.878906l26.304688-40.921875h15.113281c33.453125 0 56.402344 25.238281 63.636719 48.765625l23.125 96.816406c1.484375 6.203125.058593 12.644531-3.90625 17.667969-4.027344 5.101562-10.089844 8.03125-16.636719 8.03125h-243.566406c-4.144532 0-7.5 3.355469-7.5 7.5 0 4.140625 3.355468 7.5 7.5 7.5h243.566406c11.164062 0 21.519531-5.007812 28.410156-13.742188 6.828125-8.644531 9.277344-19.738281 6.722656-30.4375zm-77.8125-304.464843c-1.234374 12.039062-6.066406 19.078125-8.703124 20.855469 2.585937-6.378907 6.0625-15.957032 8.957031-27.421876.058593 2.011719-.011719 4.203126-.253907 6.566407zm-104.804687 126.738281c12.359375 0 24.015625-2.101562 34.742187-6.144531v31.898437c-8.195312 11.082032-20.695312 17.402344-34.644531 17.402344h-.046875c-13.945312-.015625-26.4375-6.34375-34.617187-17.421875v-31.8125c10.679687 4 22.273437 6.078125 34.566406 6.078125zm-23.570313 68.820312c-.691406.699219-1.503906.730469-1.921874.6875-.421876-.042968-1.207032-.242187-1.738282-1.070312l-21.09375-32.8125h2.421875c8.515625 11.007812 20.621094 18.484375 34.089844 21.285156zm50.800782-.382812c-.535156.828125-1.320313 1.027344-1.738282 1.070312-.421874.046876-1.230468.011719-1.921874-.6875l-11.726563-11.878906c13.527344-2.773437 25.695313-10.257812 34.25-21.316406h2.230469zm0 0"/></svg>